<svg width="14" height="14" viewBox="0 0 14 14" fill="none" xmlns="http://www.w3.org/2000/svg">
<path d="M5.00001 6.83325C4.54001 6.83325 4.16668 7.20659 4.16668 7.66659C4.16668 8.12659 4.54001 8.49992 5.00001 8.49992C5.46001 8.49992 5.83334 8.12659 5.83334 7.66659C5.83334 7.20659 5.46001 6.83325 5.00001 6.83325ZM9.00001 6.83325C8.54001 6.83325 8.16668 7.20659 8.16668 7.66659C8.16668 8.12659 8.54001 8.49992 9.00001 8.49992C9.46001 8.49992 9.83334 8.12659 9.83334 7.66659C9.83334 7.20659 9.46001 6.83325 9.00001 6.83325ZM7.00001 0.333252C3.31668 0.333252 0.333344 3.31659 0.333344 6.99992C0.333344 10.6833 3.31668 13.6666 7.00001 13.6666C10.6833 13.6666 13.6667 10.6833 13.6667 6.99992C13.6667 3.31659 10.6833 0.333252 7.00001 0.333252ZM7.00001 12.3333C4.06001 12.3333 1.66668 9.93992 1.66668 6.99992C1.66668 6.80659 1.68001 6.61659 1.70001 6.42992C3.27001 5.73325 4.52334 4.44659 5.17334 2.84992C6.38001 4.54992 8.36334 5.66659 10.61 5.66659C11.1267 5.66659 11.63 5.60325 12.11 5.48992C12.2533 5.96992 12.3333 6.47659 12.3333 6.99992C12.3333 9.93992 9.94001 12.3333 7.00001 12.3333Z" fill="#4E72F3"/>
</svg>
